<svg xmlns="http://www.w3.org/2000/svg" xmlns:xlink="http://www.w3.org/1999/xlink" xmlns:svgjs="http://svgjs.dev/svgjs" version="1.1" width="1500" height="1500" viewBox="0 0 1500 1500"><rect width="1500" height="1500" fill="#000000"/><g transform="matrix(0.6666666666666666,0,0,0.6666666666666666,250.00007343750008,187.66666666666674)"><svg xmlns="http://www.w3.org/2000/svg" xmlns:xlink="http://www.w3.org/1999/xlink" viewBox="0 0 320 360" data-background-color="#000000" preserveAspectRatio="xMidYMid meet" height="1687" width="1500"><g id="tight-bounds" transform="matrix(1,0,0,1,0.000023499999997511622,0)"><svg viewBox="0 0 320 360" height="360" width="320"><g><svg/></g><g><svg viewBox="0 0 320 360" height="360" width="320"><g><path transform="translate(-74.99272,-51.79039) scale(4.65793,4.65793)" d="M20.6 59.9l0.8 1-0.4-1.3c-0.1-0.6-0.8 0.1-0.4 0.3M21.5 59.3c0.3 0.5 0.6 1 0.6 1.5 0 0.7 0.6 1 1.1 1.2-0.7-0.8-1.1-3-1.7-2.7M59.9 16.9c1.7 0 3.3-0.2 5.1 0.2 4.4 1.1 8.1 3.3 10.6 6.4l7 11.2c0.3 2.8 0.9 5.9 0.8 9.3 0.7 0 0.6-1 1.4-1.2-0.8 2-1.2 4.5-1.4 7.4-0.5-1.6 0-4 0.1-5.3-0.7 1.1-1.1 0.3-1.1-0.2 0.1-0.8-0.3-0.7-0.6-1-1.1-1-1.8-2.1-2.6-3.8 0.5-1.3 0.6-3.2-1-4.2-0.5-0.3-1.1-0.8-1.4-1.6-0.4-1.1-1.1-2.4-0.9-4.1 0.1-0.5-1.5 1.1-2.4 0.4-3.9-2.7-7.8-5.8-12.5-8.4-2.5 0-4.3-0.9-5.2-2-0.8-1-0.2-2.3 1-2.4 0.7 0 1.5-0.2 2.1 0.2 0.1-0.4 0.5-0.9 1-0.9M50 14.6l0.2 0.1c1 0.2 1.5 1.6 2.6 1.1 0 0.7 0.1 1.4-0.1 1.9-0.3 0.8-1.2 0.8-1.9 0.8-6.7-0.4-10.6 2.4-14.7 4.8-1.1 0.7-2.3 1.2-3.2 2.1-4.3 4-9 7.7-10.1 15.1l-0.9 8.2c-0.1 0.9-1.1 1.8-0.9 2.9l0.7 4.9c-0.7-0.7-1.1 0.2-0.9 0.6 0.1 0.3 0.5 1.3 1.1 0.4 0.8 1.5 1.6 4.4 2.7 5.7 3.4 4 7.8 7.6 11.4 11.2 0.9-0.2 1.6-0.2 1.8-0.8 0.3 0.6-0.3 1.2-0.8 1.3 1.6 1 3.4 1.9 5.8 2.1 3.1 0.2 6 0.7 8.7 1.4 1.4-0.4 2.8-0.6 4.3-0.7 0.5 0 0.8-0.8 1.4-1l0.1-1c0.6 0.9 0.5-0.3 0.1-0.9 0.7 0.6 0.9 1.1 1.2 1.5 0-0.3 0.8-1.4 0.8-0.1l0.2-1.3c0.3-0.2 0.4 1.1 0.7 0.2 0.3-0.9 0.9-0.2 1.5-0.5-0.2 0.4-0.1 1.2 0.6 0.7l0.8-0.7c0.5 1.2 1.3 0.7 1.7 0.5 4.4-2.8 8.8-6.1 13-9.4l-0.1 1.3 0.5-1.6c0.5 0.5 0.9 0.1 1.1-0.2 0.6-1 1.4-2 2.7-2.9-1.6 4.3-3.5 7.7-5.9 10.5l-1 1.2c0 0.7-0.2 1.6-1 1.7-0.4 0.1-1.2-0.2-1.8 0.4-0.3 0.4 0.7 1.2-0.1 0.6-0.7-0.5-1.4 0-2.2 0.2-0.6 0.2 0.4 0.8 0.6 1.2 0.2 0.4 0.4 0.8 0.3 1.3l-1.1-1.2c-1.3 0.7-2.1 2-3.2 3-0.5 0.4-0.3 1.1-0.3 1.7-0.7 0-1.5-0.2-1.9 0.2-0.3 0.4-0.2 1-0.2 1.6-1-0.1-1.1-1.6-2-1.3-0.9 0.2-1.9 0.3-2.7 0.8 0.6 1.2-1 0.5-0.8 0.7-1.5-0.9-2.8-1.6-4.4-1-3.4-1.1-7.6-0.6-10.7-0.2 0-0.5 0.1-1-0.1-1.1-0.2 0.5-0.8 0.3-0.7 0.3-1.9-1.3-3.8-2.1-5.8-3.2-1.8 0.2-3.5-0.7-4-1.2-1.4-1.3-3-0.6-4.3-0.9-2.8-0.7-3.8-3.6-4.1-5.6-0.2-1-1-1.4-1.3-1.3-1.3-4.2-3.3-8-4.9-11.9-0.4-1-0.3-2-0.3-3.1 0.5 0.2 1 0.1 0.9-0.6-0.5-3.3-1.7-5.8-3-8.2 0.7-3.4 0.8-7.4 2.4-10.4 1.4-2.7 4-4.1 5.8-6.4 0.6-0.8 0.6-1.9 1.2-2.6 2-2 4-4.1 6.2-5.9 1-0.8 2.2 0 3.7-0.3 0.5-1.8 2.5-3.4 4.4-2.9 0.8 0.2 2.4-1.9 2.9-2.1 0.8-0.3 0.4 0.8 0.4 1.5 1.9-1.5 4.5-2.3 6.9-3.2" fill="#a32315" fill-rule="nonzero" stroke="none" stroke-width="1" stroke-linecap="butt" stroke-linejoin="miter" stroke-miterlimit="10" stroke-dasharray="" stroke-dashoffset="0" font-family="none" font-weight="none" font-size="none" text-anchor="none" style="mix-blend-mode: normal" data-fill-palette-color="tertiary"/></g><g transform="matrix(1,0,0,1,64,154.15730706024095)"><svg viewBox="0 0 192 51.68538587951808" height="51.68538587951808" width="192"><g><svg viewBox="0 0 192 51.68538587951808" height="51.68538587951808" width="192"><g><svg viewBox="0 0 192 51.68538587951808" height="51.68538587951808" width="192"><g transform="matrix(1,0,0,1,0,31.239602746987956)"><svg viewBox="0 0 192 20.44578313253012" height="20.44578313253012" width="192"><g id="textblocktransform"><svg viewBox="0 0 192 20.44578313253012" height="20.44578313253012" width="192" id="textblock"><g><svg viewBox="0 0 192 20.44578313253012" height="20.44578313253012" width="192"><g transform="matrix(1,0,0,1,0,0)"><svg width="192" viewBox="2.86 -32.4 389.03 41.43" height="20.44578313253012" data-palette-color="#c02d1c"><path d="M23.29-19.65L23.29-32.4 34.18-32.4 34.18 0 23.36 0 23.36-13.16 15.36-13.16 15.36-19.65 23.29-19.65ZM13.65-32.4L13.65 0 2.86 0 2.86-32.4 13.65-32.4ZM67.19 0L56.64 0 56.64-19.46 41.28-19.46 41.28-22.68 44.53-25.93 60.72-25.93 67.19-19.46 67.19 0ZM43.45-15.09L54.93-15.09 54.93-10.6 49.36-10.6 49.36-6.05 54.93-6.05 54.93-3.2 51.71 0 43.45 0 39.11-4.27 39.11-10.77 43.45-15.09ZM89.16-13.16L89.16-19.46 84.57-19.46 84.57-22.29 88.18-25.93 94.72-25.93 99.97-19.87 99.97-13.16 89.16-13.16ZM82.83 0L72.04 0 72.04-25.93 82.83-25.93 82.83 0ZM120.4-13.16L120.4-19.46 115.81-19.46 115.81-22.29 119.43-25.93 125.97-25.93 131.22-19.87 131.22-13.16 120.4-13.16ZM114.08 0L103.29 0 103.29-25.93 114.08-25.93 114.08 0ZM151.65-13.16L151.65-19.46 147.06-19.46 147.06-22.29 150.67-25.93 157.22-25.93 162.47-19.87 162.47-13.16 151.65-13.16ZM145.33 0L134.54 0 134.54-25.93 145.33-25.93 145.33 0ZM193.4-25.93L180.24 9.03 169.88 9.03 183.02-25.93 193.4-25.93ZM172.47-2.17L162.9-25.93 173.67-25.93 177.31-15.38 172.47-2.17ZM219.39 0L208.8 0 208.8-32.4 219.39-32.4 219.39 0ZM228.94-25.93L221.1-25.93 221.1-32.4 233.21-32.4 239.68-25.93 239.68-14.82 233.21-8.33 221.1-8.33 221.1-14.82 228.94-14.82 228.94-25.93ZM273.03-19.46L273.03-6.47 266.56 0 259.33 0 259.33-6.05 262.02-6.05 262.02-19.46 259.33-19.46 259.33-25.93 266.56-25.93 273.03-19.46ZM254.81-19.46L254.81-6.05 257.62-6.05 257.62 0 250.37 0 243.9-6.47 243.9-19.46 250.37-25.93 257.62-25.93 257.62-19.46 254.81-19.46ZM295-13.16L295-19.46 290.41-19.46 290.41-22.29 294.02-25.93 300.56-25.93 305.81-19.87 305.81-13.16 295-13.16ZM288.67 0L277.88 0 277.88-25.93 288.67-25.93 288.67 0ZM320.21-32.4L320.21-6.47 327.34-6.47 327.34 0 315.92 0 309.42-6.47 309.42-19.46 307.27-19.46 307.27-25.93 309.42-25.93 309.42-28.74 320.21-32.4ZM327.73-19.46L321.92-19.46 321.92-25.93 327.73-25.93 327.73-19.46ZM342.04-25.93L342.04 0 337.72 0 331.25-6.47 331.25-19.46 337.72-25.93 342.04-25.93ZM359.37-10.4L343.75-10.4 343.75-14.92 349.44-14.92 349.44-19.46 343.75-19.46 343.75-25.93 352.9-25.93 359.37-19.46 359.37-10.4ZM355.03 0L343.75 0 343.75-6.05 358.25-6.05 358.25-3.25 355.03 0ZM381.07-13.16L381.07-19.46 376.48-19.46 376.48-22.29 380.1-25.93 386.64-25.93 391.89-19.87 391.89-13.16 381.07-13.16ZM374.75 0L363.96 0 363.96-25.93 374.75-25.93 374.75 0Z" opacity="1" transform="matrix(1,0,0,1,0,0)" fill="#c02d1c" class="wordmark-text-0" data-fill-palette-color="primary" id="text-0"/></svg></g></svg></g></svg></g></svg></g><g transform="matrix(1,0,0,1,83.68469299137969,0)"><svg viewBox="0 0 24.63061401724062 28.25607228915663" height="28.25607228915663" width="24.63061401724062"><g><svg xmlns="http://www.w3.org/2000/svg" xmlns:xlink="http://www.w3.org/1999/xlink" version="1.1" x="0" y="0" viewBox="7.2 0.9830653421158918 85.52782288289134 98.1169346578841" enable-background="new 0 0 100 100" xml:space="preserve" height="28.25607228915663" width="24.63061401724062" class="icon-icon-0" data-fill-palette-color="accent" id="icon-0"><path d="M76.2 18.1c-0.6-1.1-0.2-2.5 0.9-3.1l8.3-4.5c1.1-0.6 2.5-0.2 3.1 0.9l0 0.1c0.6 1.1 0.2 2.5-0.9 3.1L79.3 19C78.2 19.6 76.8 19.2 76.2 18.1L76.2 18.1zM75.1 12.1l6.1-7.4C82 3.8 81.9 2.4 81 1.6c-1-0.9-2.5-0.8-3.4 0.2l-6.1 7.4c-0.8 0.9-0.7 2.3 0.2 3.1C72.7 13.2 74.2 13.1 75.1 12.1zM81.2 26.8l9.5-1.2c1.3-0.2 2.2-1.4 2-2.7-0.2-1.2-1.3-2-2.5-1.8l-9.5 1.2c-1.3 0.2-2.2 1.4-2 2.7C78.9 26.2 80 27 81.2 26.8zM29.2 99.1H9.4c-1.2 0-2.2-1-2.2-2.2v-4.4c0-1.3 0.7-2.6 1.9-3.2l21.6-11.7c1.3-0.7 2.2-1.8 2.6-3.2 0.2-0.6 0.2-1.1 0.2-1.3 0-0.2-0.1-0.4-0.1-0.7v0c-0.1-1-0.1-2.2 0.2-3.6 0 0 2.3-7.1 7.1-8.9l-4.6-5L35 55.5c-2.6 1.4-5.9 0.5-7.4-2.1l-1-1.8-1.4 0.8c-0.9 0.5-2 0.2-2.5-0.7l-3.3-6c-0.5-0.9-0.2-2 0.7-2.5l1.4-0.8-1.2-2.1c-1.4-2.6-0.5-5.9 2.1-7.4l13.2-7.3 1.1 2c5.3-4.1 13.5-11.8 16.7-21.8-0.6-1.2 0-2.7 1.3-3.2 1.1-0.5 2.5 0.1 3 1.2l6.7 12.2c3.2-0.5 6.6 1.1 8.2 4.1 1.7 3 1.2 6.7-1 9.1l6.7 12.3c0.6 1.1 0.4 2.5-0.6 3.2-1.1 0.8-2.7 0.5-3.4-0.7-10.2-2.7-21.1 0.1-27.4 2.4l1.1 2-4.9 2.7 5.7 6.2c2.3-1.7 6.4-4.3 9.4-3.5 3.5 0.8 3.2 4.6 3.2 4.6s4.9 1.1 3.4 6.4c0 0 4.1 2.3 1.9 7.2 0 0 4.4 3.9-1.7 9.2-1.8 1.6-4.4 2.9-6.9 4.1-3.8 2.2-7.8 4-10.2 5l-14.4 7.9C32.4 98.7 30.8 99.1 29.2 99.1zM40.5 45.9l-6.9-12.6-7.9 4.4 6.9 12.6L40.5 45.9z" fill="#b80f0f" data-fill-palette-color="accent"/></svg></g></svg></g><g/></svg></g></svg></g></svg></g></svg></g><defs/></svg><rect width="320" height="360" fill="none" stroke="none" visibility="hidden"/></g></svg></g></svg>